<svg width="428" height="72" viewBox="0 0 428 72" fill="none" xmlns="http://www.w3.org/2000/svg">
<path d="M26.5109 27.8537C25.6423 27.9865 25.2076 28.0519 24.3391 28.1847C23.9823 23.698 26.493 20.2868 30.8779 19.293C31.0097 20.1622 31.076 20.5972 31.2087 21.4663C28.0257 22.2889 26.3487 24.5546 26.5118 27.8537H26.5109Z" fill="#19FB9B"/>
<path d="M53.4054 39.652C53.4054 39.652 53.125 36.8794 50.7225 36.5458C48.3196 36.2121 47.8051 37.0723 47.8051 37.0723C47.8051 37.0723 49.6057 38.8035 50.097 41.0737C50.5884 43.3431 49.7931 43.8813 48.9515 43.1798C48.109 42.4775 47.3381 41.0737 46.0052 37.2131C44.6724 33.3516 42.0999 28.9762 36.0442 26.5427C32.5888 25.1542 28.5409 24.8636 24.7458 25.73C24.5369 25.7157 24.3254 25.7013 24.1103 25.687C18.1271 25.3013 15.3153 25.609 14.6108 25.7085C14.5059 25.7238 14.401 25.7291 14.2953 25.7381C13.8032 25.7794 13.3263 26.235 13.1856 26.8199L12.1234 31.2312C11.859 32.3318 12.0311 33.3974 12.5277 34.1804L12.525 34.1787L13.2062 35.3007C13.0637 35.6954 12.9373 36.0973 12.8298 36.5072C12.6254 37.2885 12.4865 38.0949 12.421 38.9174C14.7865 37.7585 19.4188 36.0632 26.4416 38.6788C36.5668 42.4488 37.1279 47.3158 44.4698 49.2084C48.6807 50.2937 50.8277 48.8738 51.982 47.1391C52.5344 46.0636 52.9214 44.8652 53.0901 43.5305C53.0901 43.5305 55.2293 43.3377 56.8251 42.3725C58.4215 41.4074 59.4557 40.5292 60 40.3714C60 40.3714 58.4734 37.5289 53.4054 39.652Z" fill="#19FB9B"/>
<path d="M35.8012 20.1282C35.8217 17.8689 34.008 16.0207 31.7503 16.0002C29.4925 15.9797 27.6456 17.7946 27.6251 20.054C27.6046 22.3134 29.4183 24.1616 31.6761 24.1821C33.9338 24.2026 35.7807 22.3876 35.8012 20.1282Z" fill="#19FB9B"/>
<path d="M33.5766 20.1083C33.5859 19.0784 32.7592 18.236 31.7301 18.2266C30.7009 18.2173 29.8591 19.0446 29.8497 20.0744C29.8404 21.1043 30.6671 21.9468 31.6963 21.9561C32.7254 21.9655 33.5673 21.1382 33.5766 20.1083Z" fill="white"/>
<path d="M51.9831 47.1398C49.6615 51.666 44.4278 54.0216 40.3476 55.2315C35.2967 56.7284 23.7097 57.4801 16.9647 50.551C13.3847 46.8735 12.1182 42.7195 12.422 38.9182C14.7875 37.7593 19.4189 36.064 26.4427 38.6796C36.5677 42.4496 37.1289 47.3166 44.4708 49.2092C48.6817 50.2945 50.8287 48.8746 51.9831 47.1398Z" fill="#9945FF"/>
<path d="M13.7504 31.3305L13.6258 31.8499C13.4878 32.4257 13.4931 32.9899 13.6195 33.4904C13.667 33.6779 13.7316 33.8564 13.8122 34.0232C13.858 34.1183 13.9081 34.2107 13.9646 34.2977C13.9825 34.3273 14.0014 34.3542 14.0202 34.3811C14.1098 34.5112 14.2111 34.6305 14.3232 34.7363C14.4953 34.9023 14.6934 35.0386 14.9121 35.1382C15.0375 35.1956 15.1711 35.2413 15.31 35.2736L16.8266 34.957L17.1628 34.887L17.5249 34.8117L14.2819 29.123L13.7504 31.3305Z" fill="#260246"/>
<path d="M15.8387 26.8366L20.1492 34.3945C20.4468 34.3748 20.7462 34.3658 21.0456 34.3676C21.3468 34.3685 21.6498 34.381 21.9536 34.4044L17.5732 26.7227C16.7557 26.7523 16.1883 26.7998 15.8387 26.8366Z" fill="#260246"/>
<path d="M36.939 28.6651C36.8753 28.6597 36.8126 28.648 36.7534 28.6301C36.7176 28.6184 33.3303 27.5905 25.7526 26.9868C25.4891 26.9662 25.2202 26.9456 24.9468 26.9258C24.9029 26.9223 24.8599 26.9195 24.8168 26.9169C24.5407 26.8971 24.2718 26.8783 24.0101 26.8621C23.4759 26.828 22.9704 26.8003 22.4908 26.7778C22.3429 26.7707 22.1986 26.7644 22.0561 26.759C21.7191 26.7446 21.3964 26.733 21.088 26.7231C20.8111 26.7151 20.5458 26.7088 20.2912 26.7043C19.9846 26.6989 19.6942 26.6962 19.419 26.6953H19.3688L23.9339 34.7017C25.3349 35.0201 26.7081 35.5655 28.0221 36.3369L31.4704 38.3614C33.5454 38.687 35.6706 37.3083 36.1654 35.2211L37.535 29.4392C37.6274 29.0472 37.3594 28.6992 36.939 28.6651Z" fill="#260246"/>
<path d="M15.4037 26.8924C15.3625 26.9005 15.3221 26.9023 15.2827 26.8996C15.0299 26.879 14.7664 27.1077 14.6938 27.4091L14.2815 29.1232L17.5244 34.8118L18.3554 34.6378C18.912 34.5221 19.4749 34.4423 20.0432 34.401C20.0781 34.3983 20.114 34.3956 20.149 34.3938L15.8384 26.8359C15.548 26.8673 15.4091 26.8906 15.4037 26.8924Z" fill="white"/>
<path d="M19.3683 26.6956C19.0528 26.6947 18.7579 26.6956 18.4827 26.7001C18.35 26.7019 18.2228 26.7046 18.1 26.7073C17.9135 26.7118 17.7378 26.7172 17.5729 26.7225L21.9534 34.4042C22.3424 34.432 22.7341 34.4787 23.1258 34.5433C23.3956 34.5881 23.6645 34.641 23.9334 34.702L19.3683 26.6956Z" fill="white"/>
<path d="M80.8408 50.0012L72 22.002H78.2006L83.9612 40.7204L90.0412 22.002H96.0812L102.081 40.7204L107.88 22.002H114.04L105.161 50.0012H98.9222L93.0028 30.9212L87.0432 50.0012H80.8426H80.8408Z" fill="white"/>
<path d="M117.04 50.0012V22.002H123.08V33.041H134.76V22.002H140.8V50.0012H134.76V38.7212H123.08V50.0012H117.04Z" fill="white"/>
<path d="M143.8 50.0012L155.799 22.002H162.038L174.038 50.0012H167.397L165.038 44.562H152.798L150.477 50.0012H143.798H143.8ZM154.761 39.2415H163.081L158.962 29.4824H158.881L154.762 39.2415H154.761Z" fill="white"/>
<path d="M177.038 50.0012V22.002H183.078V44.4415H193.158V50.0012H177.038Z" fill="white"/>
<path d="M197.117 50.0012V22.002H212.757V27.5616H203.156V33.041H212.277V38.6007H203.156V44.4397H212.956V49.9994H197.117V50.0012Z" fill="white"/>
<path d="M227.716 32.8409C231.996 33.9601 237.156 35.481 237.156 41.8003C237.156 46.8797 232.957 50.5205 226.796 50.5205C222.396 50.5205 219.076 48.8809 216.356 45.7605L220.515 41.8806C222.195 43.7612 223.955 44.9608 226.794 44.9608C229.794 44.9608 231.114 43.6809 231.114 41.9609C231.114 39.9215 228.394 39.2806 225.275 38.4005C221.196 37.2813 216.995 35.3605 216.995 29.6803C216.995 24.84 220.915 21.4805 226.555 21.4805C230.996 21.4805 233.714 23.0799 236.314 25.6799L232.155 29.4393C230.795 28.0389 228.954 27.0402 226.515 27.0402C224.275 27.0402 223.035 28.0005 223.035 29.5598C223.035 31.4003 225.114 32.1598 227.715 32.839L227.716 32.8409Z" fill="white"/>
<path d="M265.391 22.002L271.351 41.082L277.27 22.002H283.509L292.388 50.0012H286.228L280.429 31.2827L274.429 50.0012H268.389L262.309 31.2827L256.549 50.0012H250.348L259.189 22.002H265.39H265.391Z" fill="white"/>
<path d="M292.151 49.9993L304.15 22H310.389L322.388 49.9993H315.748L313.389 44.5601H301.148L298.828 49.9993H292.149H292.151ZM303.111 39.2396H311.431L307.312 29.4805H307.232L303.113 39.2396H303.111Z" fill="white"/>
<path d="M340.747 49.9993L333.387 39.9188H330.388V49.9993H324.388V22H335.467C339.787 22 344.427 24.9597 344.427 30.9594C344.427 35 342.307 37.6785 339.586 38.9986L347.545 49.9975H340.746L340.747 49.9993ZM330.388 34.6805H334.507C337.026 34.6805 338.387 33.1212 338.387 30.9612C338.387 28.8013 337.026 27.242 334.507 27.242H330.388V34.6823V34.6805Z" fill="white"/>
<path d="M355.548 36.9611V50.0012H349.548V22.002H355.548V34.0014L364.947 22.002H372.028L361.588 35.4821L372.428 50.0012H365.387L355.548 36.9611Z" fill="white"/>
<path d="M375.466 49.9993V22H391.106V27.5597H381.506V33.039H390.626V38.5987H381.506V44.4378H391.305V49.9975H375.466V49.9993Z" fill="white"/>
<path d="M402.105 49.9993V27.5597H394.625V22H415.583V27.5597H408.103V49.9993H402.103H402.105Z" fill="white"/>
</svg>
