<svg width="16" height="16" viewBox="0 0 16 16" fill="none" xmlns="http://www.w3.org/2000/svg">
<g clip-path="url(#clip0_36017_127255)">
<path d="M13.7243 5.9195C12.8433 5.15672 11.8333 4.55736 10.7416 4.14962C10.7698 3.50313 10.9743 2.87667 11.3331 2.33816L11.8919 1.5L10.6047 1.81309C10.112 1.93295 9.64834 2.1505 9.24122 2.45285C8.83411 2.75519 8.49183 3.13619 8.23467 3.57325L7.59964 3.51334C6.52633 3.41209 5.44367 3.48881 4.39536 3.74041L1.71483 4.38375C1.62867 4.40443 1.54916 4.44658 1.48369 4.50628C1.41822 4.56598 1.36894 4.64128 1.34042 4.72517C1.31191 4.80905 1.30509 4.89879 1.32062 4.98602C1.33614 5.07325 1.3735 5.15513 1.4292 5.22403L2.77561 6.88934C2.99205 7.15704 3.26985 7.3686 3.58545 7.50609C3.90105 7.64357 4.24515 7.70293 4.58858 7.67912L6.46805 7.54887C6.51378 7.5457 6.55968 7.55171 6.60305 7.56656C6.64642 7.5814 6.68638 7.60479 6.72056 7.63533C6.75475 7.66587 6.78247 7.70295 6.8021 7.74438C6.82172 7.78581 6.83285 7.83074 6.83482 7.87654C6.8368 7.92234 6.82958 7.96807 6.81359 8.01103C6.79761 8.054 6.77318 8.09333 6.74175 8.1267C6.71032 8.16007 6.67252 8.1868 6.63059 8.20533C6.58866 8.22385 6.54344 8.23379 6.49761 8.23456L4.8058 8.26334L4.99811 8.46647C5.41151 8.8581 5.95603 9.0816 6.52536 9.09334L11.0292 9.18791L11.8251 9.10694C12.1285 9.11319 12.4204 9.31778 12.6514 9.5145C12.9157 9.73948 13.0804 10.0597 13.1098 10.4055C13.1392 10.7513 13.0309 11.0948 12.8085 11.3611L11.9975 12.2198L11.7756 11.9979C11.2392 11.4615 10.5433 11.1135 9.79233 11.0063L9.29233 10.9348L9.4267 11.2411C9.73349 11.9399 10.2709 12.5122 10.9491 12.8622L10.636 13.0299C10.2184 13.2537 9.85326 13.5639 9.56505 13.94L9.12317 14.5165L9.53723 14.517C10.0342 14.5177 10.5256 14.4127 10.9788 14.209C11.4321 14.0053 11.8369 13.7076 12.1664 13.3356L12.6476 13.1237C14.1489 12.4625 15.1637 11.0095 15.2242 9.37022C15.2253 9.34009 15.2261 9.30989 15.2266 9.27959C15.2369 8.64378 15.1077 8.01344 14.8482 7.43292C14.5886 6.85241 14.205 6.33582 13.7243 5.9195Z" fill="#0A71CD"/>
<path d="M9.48713 7.09327C9.48363 7.09327 9.48009 7.09327 9.47656 7.09305C9.41032 7.0903 9.34788 7.06135 9.30298 7.01256C9.25808 6.96377 9.23441 6.89914 9.23716 6.8329L9.24922 6.54252C9.25771 6.33112 9.19485 6.123 9.07075 5.95165C9.03307 5.89795 9.018 5.83159 9.0288 5.76688C9.03961 5.70217 9.07541 5.6443 9.1285 5.60575C9.18158 5.56721 9.24769 5.55107 9.31257 5.56082C9.37744 5.57058 9.43588 5.60544 9.47528 5.6579C9.66546 5.9205 9.76179 6.23943 9.74878 6.5634L9.73672 6.85374C9.73402 6.91814 9.70655 6.97902 9.66004 7.02365C9.61353 7.06828 9.55158 7.09322 9.48713 7.09327Z" fill="#0A0A0B"/>
<path d="M10.4868 7.09325C10.4833 7.09325 10.4798 7.09325 10.4762 7.09303C10.41 7.09028 10.3475 7.06133 10.3026 7.01254C10.2577 6.96375 10.2341 6.89912 10.2368 6.83288L10.2489 6.5425C10.2548 6.39508 10.2261 6.24832 10.1651 6.114C10.1376 6.05367 10.1352 5.98488 10.1584 5.92278C10.1816 5.86067 10.2286 5.81033 10.2889 5.78283C10.3492 5.75533 10.418 5.75293 10.4801 5.77614C10.5422 5.79936 10.5926 5.84629 10.6201 5.90663C10.7136 6.11246 10.7576 6.33735 10.7484 6.56325L10.7364 6.85363C10.7337 6.91805 10.7062 6.97894 10.6597 7.02359C10.6132 7.06825 10.5513 7.0932 10.4868 7.09325Z" fill="#0A0A0B"/>
<path d="M14.1223 12.0836L14.2203 12.2586C14.394 12.5687 14.5505 12.8881 14.6891 13.2155L14.763 13.3905L14.8118 13.2287C15.1013 12.2689 15.2065 11.263 15.1218 10.2641L15.0807 9.85687L13.9941 11.8608L14.1223 12.0836Z" fill="#0A71CD"/>
<path d="M4.58875 5.57453C4.75858 5.57453 4.89625 5.43686 4.89625 5.26703C4.89625 5.09721 4.75858 4.95953 4.58875 4.95953C4.41892 4.95953 4.28125 5.09721 4.28125 5.26703C4.28125 5.43686 4.41892 5.57453 4.58875 5.57453Z" fill="#0A0A0B"/>
<path d="M13.8379 10.8997C13.7059 11.1697 13.494 11.3926 13.2311 11.5381L11.9982 12.2197L12.7154 11.3609C12.8745 11.1706 12.9765 10.9391 13.0098 10.6933C13.043 10.4474 13.0062 10.1972 12.9034 9.97139C12.8006 9.7456 12.6361 9.55344 12.4288 9.41708C12.2216 9.28071 11.98 9.20568 11.732 9.20063L10.4911 9.175L10.3857 8.32532L12.3473 8.39125C12.5995 8.3997 12.8453 8.47323 13.0607 8.6047C13.2761 8.73617 13.4539 8.92112 13.5767 9.14157L13.8014 9.545C13.9162 9.75113 13.9796 9.98197 13.9859 10.2179C13.9923 10.4537 13.9415 10.6877 13.8379 10.8997Z" fill="#0A71CD"/>
<path d="M9.15039 8.39336C9.46305 9.06795 10.0225 9.59697 10.7135 9.87148L11.508 10.1871L11.4861 10.126C11.2469 9.45642 10.8722 8.84332 10.3854 8.32508L10.3291 8.26514L9.15039 8.39336Z" fill="#0A71CD"/>
<path d="M8.48674 7.09323C8.48324 7.09323 8.47971 7.09323 8.47617 7.09301C8.44337 7.09165 8.41116 7.08384 8.38137 7.07003C8.35159 7.05621 8.32481 7.03667 8.30258 7.01251C8.28035 6.98835 8.2631 6.96004 8.2518 6.92921C8.24051 6.89838 8.2354 6.86563 8.23677 6.83283L8.24883 6.54251C8.25411 6.41219 8.23225 6.2822 8.18465 6.16077C8.13704 6.03935 8.06472 5.92914 7.97227 5.83714C7.94897 5.814 7.93046 5.7865 7.9178 5.75621C7.90513 5.72592 7.89855 5.69343 7.89844 5.6606C7.89833 5.62777 7.90468 5.59523 7.91714 5.56486C7.92961 5.53448 7.94793 5.50686 7.97107 5.48356C7.9942 5.46027 8.0217 5.44176 8.05199 5.42909C8.08228 5.41642 8.11477 5.40984 8.14761 5.40973C8.18044 5.40962 8.21297 5.41597 8.24335 5.42844C8.27372 5.4409 8.30135 5.45922 8.32464 5.48236C8.46632 5.62333 8.57715 5.79221 8.65011 5.97829C8.72306 6.16436 8.75656 6.36356 8.74846 6.56326L8.73639 6.85361C8.73372 6.91804 8.70625 6.97894 8.65973 7.0236C8.6132 7.06825 8.55122 7.0932 8.48674 7.09323Z" fill="#0A0A0B"/>
</g>
<defs>
<clipPath id="clip0_36017_127255">
<rect width="16" height="16" fill="white"/>
</clipPath>
</defs>
</svg>
