<svg width="16" height="16" viewBox="0 0 16 16" fill="none" xmlns="http://www.w3.org/2000/svg">
<path d="M9.2168 7.09026H10.2229C10.2229 7.09026 11.3326 6.53104 11.5778 5.45431C11.7141 4.855 11.4172 3.95196 11.4172 3.95196C10.925 3.74337 9.23043 3.81835 9.23043 3.81835C9.23043 3.81835 9.87418 4.43484 9.84691 5.45431C9.8191 6.49696 9.2168 7.09026 9.2168 7.09026Z" fill="#FF8F3C"/>
<path d="M13.3751 6.35681L13.6451 5.81967C13.307 5.12166 12.7453 4.5518 12.0555 4.20007C12.0555 4.20007 12.3456 4.85854 12.0459 5.80467C11.7722 6.66982 11.0957 7.09026 11.0957 7.09026H12.0909C12.6171 7.09026 13.1079 6.80942 13.3751 6.35681Z" fill="#FF8F3C"/>
<path d="M12.9721 7.43276C12.4546 7.6967 11.9434 7.63562 11.9434 7.63562C12.0088 7.74741 12.0551 7.87283 12.0742 8.00644C12.0742 8.00644 12.7791 8.51086 13.3857 8.2791L13.9828 7.99826C13.9938 7.88374 14.0442 7.00114 13.8983 6.52863C13.8983 6.52863 13.6371 7.09357 12.9721 7.43276Z" fill="#FF8F3C"/>
<path d="M13.0203 8.88165C12.7673 8.87347 12.5165 8.82712 12.2795 8.7156L11.7986 9.91803C11.6674 10.1822 11.6827 10.4745 11.8286 10.7038L12.1868 11.1112C13.04 10.5222 13.6368 9.65 13.8768 8.65234C13.8768 8.65234 13.5239 8.89801 13.0203 8.88165Z" fill="#FF8F3C"/>
<path d="M11.3377 9.50877C10.9505 9.17886 10.4679 8.9989 9.95533 8.9989H8.54569C8.39572 8.9989 8.26267 9.12187 8.27303 9.27156C8.38427 10.8691 9.86808 10.9102 9.86808 10.9102C9.21643 11.6955 9.26142 12.8366 9.98805 13.555C10.147 13.7124 10.3207 13.6068 10.3752 13.555L11.1605 12.7698C11.5095 12.4208 11.7276 11.9736 11.7931 11.491C11.7931 11.4907 11.7931 11.4905 11.7931 11.4902C11.7931 11.4902 10.739 10.7682 11.3377 9.50877Z" fill="#FF8F3C"/>
<path d="M3.55625 5.45432C3.55625 5.45432 5.40352 6.94904 6.66456 7.04937C6.3281 7.57124 6.36464 8.18091 6.36464 8.18091C6.38809 8.59862 6.92795 8.52937 6.90996 8.18091C6.90996 8.18091 6.88542 7.51071 7.30259 7.09027H7.45528C7.14472 7.61869 7.18262 8.18091 7.18262 8.18091C7.20961 8.56918 7.7323 8.49583 7.72793 8.18091C7.72793 8.18091 7.65023 7.6146 8.12056 7.09027H8.50774C8.50774 7.09027 9.30009 6.43371 9.30009 5.45432C9.30009 4.61317 8.56227 3.81837 8.56227 3.81837C8.56227 3.81837 7.62432 3.65123 6.34283 4.20554C5.3059 4.65407 3.60806 4.909 3.60806 4.909H3.22906C2.32329 4.909 2.3102 3.54571 3.22906 3.54571H7.18262C7.52917 3.54571 7.56379 3.00039 7.18262 3.00039H3.22906C1.78888 2.96576 1.40306 5.25855 3.22906 5.45432H3.55625ZM6.09471 5.18166H6.09743C6.24794 5.18166 6.37009 5.30381 6.37009 5.45432C6.37009 5.60483 6.24794 5.72698 6.09743 5.72698C5.94693 5.72698 5.82341 5.60483 5.82341 5.45432C5.82341 5.30381 5.9442 5.18166 6.09471 5.18166Z" fill="#FF8F3C"/>
</svg>
