<svg width="16" height="16" viewBox="0 0 16 16" fill="none" xmlns="http://www.w3.org/2000/svg">
<path d="M4.33349 10.3333C4.33349 11.62 5.3805 12.6666 6.66683 12.6666C6.85116 12.6666 7.00016 12.5173 7.00016 12.3333V10.3333H8.66683C11.5202 10.3333 13.8568 8.08165 13.9938 5.26198C13.9938 5.26198 15.2722 5.10331 15.3335 3.66665C15.3412 3.48265 15.1845 3.33331 15.0002 3.33331H13.9692C13.4602 3.33331 13.0002 3.62731 13.0002 3.62731C13.0002 3.62731 12.5495 3.33331 12.0312 3.33331H11.0002C10.8158 3.33331 10.6668 3.48265 10.6668 3.66665C10.6668 4.40865 11.1655 5.06298 11.9515 5.24798C11.9515 5.24798 11.5468 6.73698 9.9585 6.37265C9.21583 6.20231 8.5585 5.75331 8.01983 5.21465C7.02149 4.21631 5.6815 3.66965 4.10316 3.66631C2.29016 3.66298 0.673828 5.19498 0.673828 6.77865C0.673828 10.561 4.33349 10.3333 4.33349 10.3333ZM2.67016 6.66665H2.6735C2.85783 6.66665 3.00683 6.81598 3.00683 6.99998C3.00683 7.18398 2.85783 7.33331 2.6735 7.33331C2.4895 7.33331 2.33849 7.18398 2.33849 6.99998C2.33849 6.81598 2.48616 6.66665 2.67016 6.66665Z" fill="#27C9D8"/>
</svg>
